<?xml version="1.0" encoding="iso-8859-1"?>
<!-- Generator: Adobe Illustrator 19.1.1, SVG Export Plug-In . SVG Version: 6.00 Build 0)  -->
<svg version="1.1" id="Calque_1" xmlns="http://www.w3.org/2000/svg" xmlns:xlink="http://www.w3.org/1999/xlink" x="0px" y="0px"
	 viewBox="0 0 193.824 93.6" style="enable-background:new 0 0 193.824 93.6;" xml:space="preserve">
<g>
	<polygon style="fill-rule:evenodd;clip-rule:evenodd;fill:#F54029;" points="31.581,57.677 33.374,56.793 35.143,55.969 
		36.911,55.205 38.68,54.514 40.424,53.872 42.181,53.29 43.913,52.769 45.646,52.308 47.378,51.908 49.086,51.557 50.806,51.266 
		52.514,51.024 54.21,50.83 55.894,50.696 57.59,50.612 59.262,50.575 60.933,50.587 62.605,50.636 64.265,50.745 65.924,50.903 
		67.572,51.096 69.219,51.327 70.855,51.618 72.49,51.933 74.126,52.296 75.749,52.696 77.372,53.145 78.983,53.617 80.594,54.138 
		82.193,54.684 83.793,55.266 85.392,55.884 87.015,54.757 88.626,53.714 90.261,52.745 91.897,51.836 93.544,51.012 95.204,50.248 
		96.864,49.557 98.523,48.927 100.195,48.369 101.879,47.873 103.563,47.436 105.259,47.073 106.954,46.77 108.663,46.527 
		110.383,46.346 112.091,46.212 113.823,46.152 115.543,46.139 117.288,46.188 119.02,46.297 120.764,46.442 122.521,46.661 
		124.278,46.927 126.034,47.23 127.803,47.594 129.571,48.018 131.352,48.479 133.133,48.988 134.914,49.533 136.694,50.139 
		138.487,50.781 140.28,51.472 141.806,50.527 143.345,49.63 144.883,48.794 146.434,47.994 147.997,47.254 149.572,46.564 
		151.146,45.933 152.733,45.352 154.332,44.806 155.944,44.334 157.567,43.897 159.19,43.522 160.825,43.194 162.485,42.916 
		164.133,42.685 165.804,42.516 167.476,42.395 169.172,42.322 170.868,42.298 172.576,42.334 174.284,42.419 176.016,42.564 
		177.749,42.746 179.493,42.988 181.25,43.279 183.018,43.631 184.799,44.019 186.58,44.467 188.373,44.976 190.178,45.521 
		191.995,46.127 193.824,46.794 190.468,40.855 186.774,35.329 182.752,30.202 178.439,25.475 173.848,21.149 169.002,17.21 
		163.927,13.683 158.657,10.568 153.194,7.841 147.585,5.527 141.831,3.612 135.968,2.097 130.02,0.994 124.011,0.291 117.966,0 
		111.897,0.109 105.828,0.63 99.795,1.563 93.823,2.897 87.911,4.642 82.109,6.799 76.427,9.368 70.903,12.338 65.537,15.719 
		60.364,19.525 55.422,23.73 50.709,28.36 46.263,33.39 42.096,38.843 38.256,44.709 34.743,50.987 31.581,57.677 	"/>
	<path style="fill-rule:evenodd;clip-rule:evenodd;" d="M98.087,70.1l-0.363-0.085h-0.267l-0.279-0.085l-0.267-0.097l-0.267-0.085
		l-0.279-0.097l-0.17-0.182l-0.279-0.17l-0.182-0.182l-0.17-0.279l-0.182-0.267l-0.182-0.182l-0.097-0.267v-0.267l-0.085-0.364
		v-0.267v-0.279l0.085-0.267v-0.364l0.097-0.267l0.182-0.182l0.182-0.267l0.17-0.267l0.182-0.182l0.279-0.182l0.17-0.182
		l0.279-0.085l0.267-0.182l0.267-0.097h0.279l0.267-0.085h0.363h0.267l0.363,0.085h0.267l0.267,0.097l0.267,0.182l0.279,0.085
		l0.267,0.182l0.182,0.182l0.267,0.182l0.182,0.267l0.085,0.267l0.182,0.182l0.097,0.267l0.085,0.364v0.267v0.279v0.267v0.267
		l-0.085,0.279l-0.097,0.267l-0.182,0.267l-0.085,0.267l-0.182,0.182l-0.267,0.182l-0.182,0.267l-0.267,0.097l-0.279,0.182
		l-0.267,0.085l-0.267,0.097l-0.267,0.085h-0.363L98.087,70.1L98.087,70.1z M86.118,69.93H85.84l-0.267-0.097h-0.267l-0.279-0.085
		l-0.267-0.182l-0.267-0.097l-0.267-0.17l-0.182-0.182l-0.279-0.182l-0.17-0.267l-0.182-0.182l-0.097-0.279l-0.085-0.267
		l-0.097-0.267v-0.267l-0.085-0.364l0.085-0.267V66.5l0.097-0.267l0.085-0.267l0.097-0.279l0.182-0.267l0.17-0.182l0.279-0.267
		l0.182-0.182l0.267-0.182l0.267-0.085l0.267-0.097l0.279-0.085l0.267-0.085l0.267-0.097h0.279h0.351l0.279,0.097l0.267,0.085
		l0.363,0.085l0.267,0.097l0.182,0.085l0.267,0.182l0.267,0.182l0.182,0.267l0.182,0.182l0.182,0.267l0.085,0.279l0.182,0.267V66.5
		l0.097,0.279v0.267v0.267l-0.097,0.364v0.267l-0.182,0.267l-0.085,0.182l-0.182,0.279l-0.182,0.17l-0.182,0.279L88.093,69.3
		l-0.182,0.17l-0.267,0.097l-0.267,0.182l-0.363,0.085h-0.267L86.47,69.93H86.118L86.118,69.93z M79.189,70.1l-0.363-0.085h-0.267
		l-0.279-0.085l-0.267-0.097l-0.267-0.085l-0.267-0.097l-0.182-0.182l-0.279-0.17l-0.17-0.182l-0.182-0.279l-0.182-0.267
		l-0.182-0.182l-0.085-0.267l-0.097-0.267v-0.364v-0.267v-0.279v-0.267l0.097-0.364l0.085-0.267l0.182-0.182l0.182-0.267
		l0.182-0.267l0.17-0.182l0.182-0.182l0.279-0.182l0.267-0.085l0.267-0.182l0.267-0.097h0.279l0.267-0.085h0.363h0.267l0.363,0.085
		h0.267l0.267,0.097l0.279,0.182l0.267,0.085l0.267,0.182l0.182,0.182l0.182,0.182l0.267,0.267l0.097,0.267l0.17,0.182l0.097,0.267
		l0.085,0.364v0.267v0.279v0.267v0.267l-0.085,0.279l-0.097,0.267l-0.17,0.267l-0.097,0.267l-0.267,0.182l-0.182,0.182l-0.182,0.267
		l-0.267,0.097l-0.267,0.182l-0.279,0.085l-0.267,0.097l-0.267,0.085h-0.363L79.189,70.1L79.189,70.1z M116.621,76.948l-0.267-0.097
		l-0.267-0.109l-0.242-0.097l-0.254-0.097l-0.242-0.085l-0.242-0.085l-0.23-0.085l-0.242-0.073l-0.267-0.012l-0.267-0.024
		l-0.279-0.036l-0.267-0.012l-0.133-0.024l-0.145-0.024l-0.157-0.024h-0.157l-0.327-0.012h-0.339h-0.23l-0.242,0.024l-0.23,0.036
		l-0.242,0.061l-0.23,0.061l-0.242,0.085l-0.23,0.085l-0.242,0.097l-0.109,0.073l-0.109,0.073l-0.097,0.085l-0.085,0.085
		l-0.085,0.097l-0.073,0.097l-0.073,0.109l-0.048,0.109l-0.061,0.121l-0.036,0.121l-0.036,0.121l-0.036,0.133l-0.024,0.133
		l-0.012,0.145l-0.012,0.145v0.145v0.133l0.024,0.133l0.024,0.121l0.036,0.121l0.048,0.109l0.048,0.121l0.073,0.097l0.073,0.097
		l0.085,0.097l0.097,0.097l0.097,0.073l0.109,0.085l0.121,0.073l0.133,0.061l0.145,0.061l0.145,0.061l0.182,0.109l0.17,0.085
		l0.073,0.036l0.073,0.012l0.061,0.024h0.073l0.206,0.061l0.194,0.073l0.206,0.073l0.206,0.061l0.182,0.073l0.17,0.061l0.182,0.073
		l0.182,0.061l0.206,0.073l0.206,0.073l0.194,0.061l0.206,0.073l0.206,0.073l0.194,0.073l0.206,0.085l0.194,0.097l0.376,0.194
		l0.351,0.194l0.388,0.267l0.363,0.279l0.315,0.267l0.291,0.267l0.133,0.145l0.133,0.158l0.133,0.182l0.121,0.194l0.133,0.206
		l0.109,0.23l0.121,0.242l0.097,0.267l0.073,0.242l0.048,0.267l0.048,0.267l0.036,0.291l0.036,0.303l0.012,0.315l0.012,0.327
		l0.012,0.327l-0.012,0.412l-0.024,0.412l-0.048,0.388l-0.073,0.376l-0.085,0.364l-0.097,0.339l-0.121,0.339l-0.145,0.315
		l-0.145,0.315l-0.182,0.279l-0.194,0.279l-0.206,0.255l-0.23,0.255l-0.242,0.218l-0.254,0.218l-0.279,0.194l-0.315,0.17
		l-0.303,0.17l-0.315,0.17l-0.327,0.145l-0.315,0.133l-0.339,0.121l-0.327,0.121l-0.339,0.097l-0.351,0.097l-0.339,0.073
		l-0.363,0.073l-0.351,0.061l-0.376,0.036l-0.376,0.036l-0.376,0.012l-0.388,0.012h-0.351l-0.351-0.012l-0.351-0.024l-0.339-0.024
		l-0.351-0.036l-0.339-0.036l-0.351-0.048l-0.339-0.061l-0.678-0.109l-0.678-0.145l-0.678-0.145l-0.678-0.17l0.363-4.327l0.279,0.17
		l0.267,0.158l0.279,0.133l0.291,0.133l0.291,0.121l0.291,0.109l0.291,0.109l0.303,0.085l0.291,0.085l0.303,0.061l0.315,0.061
		l0.303,0.048l0.315,0.036l0.315,0.024l0.315,0.012l0.327,0.012l0.23-0.012l0.242-0.024l0.242-0.036l0.242-0.061l0.242-0.073
		l0.254-0.097l0.254-0.109l0.267-0.133l0.145-0.061l0.145-0.085l0.121-0.085l0.109-0.085l0.109-0.097l0.097-0.097l0.085-0.109
		l0.085-0.121l0.061-0.121l0.061-0.121l0.048-0.133l0.036-0.145l0.036-0.145l0.012-0.158l0.012-0.158l0.012-0.17l-0.012-0.194
		l-0.012-0.182l-0.024-0.158l-0.036-0.158l-0.048-0.145l-0.061-0.145l-0.073-0.133l-0.097-0.145l-0.073-0.121l-0.097-0.109
		l-0.109-0.109l-0.109-0.097l-0.279-0.182l-0.327-0.182l-0.279-0.145l-0.315-0.121l-0.157-0.061l-0.17-0.048l-0.17-0.036
		l-0.17-0.048l-0.388-0.133l-0.388-0.133l-0.4-0.133l-0.436-0.133l-0.194-0.073l-0.17-0.061l-0.17-0.073l-0.194-0.061l-0.194-0.085
		l-0.194-0.097l-0.182-0.097l-0.145-0.085l-0.206-0.121l-0.206-0.109l-0.194-0.097l-0.206-0.121l-0.145-0.133l-0.17-0.145
		l-0.17-0.133l-0.145-0.133l-0.157-0.17l-0.145-0.182l-0.133-0.194l-0.121-0.194l-0.097-0.206l-0.097-0.218l-0.073-0.218
		l-0.073-0.242l-0.097-0.206l-0.097-0.242l-0.073-0.255l-0.061-0.267l-0.061-0.291l-0.036-0.291l-0.024-0.303v-0.303l0.012-0.4
		l0.048-0.388l0.048-0.364l0.073-0.364l0.085-0.351l0.109-0.327l0.109-0.327l0.133-0.303l0.157-0.291l0.17-0.279l0.182-0.267
		l0.206-0.255l0.23-0.23l0.23-0.218l0.267-0.218l0.279-0.194l0.254-0.158l0.267-0.158l0.267-0.145l0.291-0.133l0.279-0.133
		l0.303-0.121l0.303-0.109l0.303-0.097l0.315-0.085l0.327-0.073l0.327-0.073l0.327-0.048l0.339-0.048l0.339-0.024l0.351-0.024h0.351
		h0.46l0.424,0.012h0.194l0.194,0.024l0.182,0.024l0.17,0.024l0.388,0.012l0.351,0.036l0.327,0.024l0.279,0.012l0.327,0.073
		l0.303,0.073l0.315,0.061l0.315,0.073l0.279,0.061l0.267,0.073l0.267,0.073l0.267,0.061L116.621,76.948L116.621,76.948z
		 M95.652,92.703V72.718h4.858v19.985H95.652L95.652,92.703z M78.911,86.934l0.012,0.158v0.145l0.024,0.133l0.024,0.145l0.024,0.121
		l0.036,0.133l0.048,0.121l0.048,0.121l0.061,0.109l0.061,0.109l0.073,0.097l0.085,0.097l0.085,0.085l0.109,0.085l0.097,0.073
		l0.121,0.073l0.097,0.085l0.109,0.073l0.109,0.073l0.121,0.061l0.121,0.048l0.121,0.061l0.133,0.036l0.133,0.048l0.279,0.061
		l0.291,0.048l0.315,0.024l0.327,0.012l0.279-0.024l0.279-0.036l0.267-0.036l0.254-0.061l0.242-0.061l0.242-0.085l0.23-0.085
		l0.218-0.109l0.206-0.109l0.206-0.133l0.194-0.145l0.182-0.158l0.17-0.17l0.157-0.182l0.157-0.194l0.133-0.218l0.133-0.218
		l0.121-0.23l0.109-0.23l0.097-0.242l0.085-0.242l0.085-0.255l0.073-0.255l0.061-0.255l0.061-0.267l0.048-0.267l0.036-0.279
		l0.024-0.267l0.024-0.279l0.024-0.279l0.012-0.291v-0.279h-2.883l-0.133,0.012l-0.121,0.024l-0.109,0.036l-0.085,0.012H82.92
		h-0.121H82.69h-0.085l-0.242,0.036l-0.23,0.048l-0.23,0.061l-0.23,0.061l-0.23,0.073l-0.218,0.073l-0.218,0.097L80.8,84.062
		l-0.194,0.073l-0.194,0.085l-0.182,0.109l-0.17,0.121l-0.17,0.133l-0.145,0.145l-0.157,0.158l-0.133,0.158l-0.133,0.182
		l-0.109,0.194l-0.085,0.206l-0.085,0.23l-0.048,0.242l-0.048,0.267l-0.024,0.279L78.911,86.934L78.911,86.934z M76.306,73.797
		l0.388-0.182l0.388-0.17l0.4-0.145l0.388-0.145l0.4-0.133l0.4-0.121l0.4-0.109l0.412-0.097l0.4-0.085l0.412-0.085l0.412-0.061
		l0.412-0.061l0.412-0.048l0.412-0.036l0.424-0.036l0.424-0.012h0.497l0.485,0.012l0.46,0.036l0.448,0.048l0.436,0.073l0.424,0.085
		l0.4,0.097l0.388,0.121l0.376,0.133l0.351,0.145l0.339,0.17l0.327,0.194l0.303,0.194l0.291,0.218l0.279,0.242l0.254,0.255
		l0.242,0.267l0.23,0.291l0.206,0.303l0.194,0.315l0.182,0.339l0.17,0.351l0.145,0.376l0.121,0.388l0.121,0.4l0.097,0.424
		l0.073,0.436l0.073,0.461l0.048,0.473l0.036,0.485l0.012,0.509v0.521v2.618v0.364v0.364v0.351v0.339v0.327v0.327v0.315v0.315v0.303
		l0.012,0.303l0.012,0.291l0.024,0.291l0.012,0.279l0.012,0.279l0.012,0.255v0.242l0.012,0.545l0.012,0.558l0.012,0.558l0.024,0.558
		l0.024,0.57L91,91.552l0.024,0.57l0.036,0.582h-4.228l-0.061-0.436l-0.061-0.412l-0.048-0.4l-0.036-0.376l-0.024-0.364
		l-0.024-0.339l-0.012-0.339v-0.303l-0.121,0.194l-0.121,0.194l-0.133,0.182l-0.133,0.182l-0.133,0.182l-0.145,0.17l-0.145,0.158
		l-0.145,0.17l-0.157,0.145l-0.157,0.145l-0.17,0.145l-0.157,0.145l-0.17,0.133L84.495,92l-0.182,0.133l-0.182,0.121l-0.206,0.109
		l-0.194,0.109l-0.206,0.097l-0.206,0.085l-0.206,0.085l-0.194,0.073l-0.206,0.061l-0.206,0.061l-0.218,0.048l-0.206,0.048
		l-0.206,0.036l-0.218,0.036l-0.206,0.024l-0.218,0.012l-0.218,0.012H80.8l-0.315-0.012l-0.315-0.012l-0.303-0.036l-0.315-0.036
		l-0.291-0.061l-0.303-0.073l-0.291-0.073l-0.279-0.097l-0.279-0.097l-0.279-0.121l-0.267-0.121l-0.267-0.133l-0.254-0.145
		l-0.254-0.17l-0.242-0.17l-0.242-0.17l-0.23-0.194l-0.218-0.206l-0.206-0.218l-0.182-0.23l-0.182-0.242l-0.157-0.242l-0.157-0.267
		l-0.133-0.279l-0.121-0.279l-0.097-0.291l-0.097-0.303l-0.073-0.315l-0.048-0.327l-0.048-0.327l-0.024-0.339v-0.351v-0.267
		l0.012-0.267l0.012-0.267l0.024-0.242l0.024-0.255l0.036-0.242l0.048-0.242l0.048-0.23l0.061-0.218l0.061-0.218l0.073-0.218
		l0.085-0.194l0.097-0.206l0.097-0.182l0.097-0.182l0.121-0.17l0.097-0.182l0.121-0.182l0.109-0.158l0.121-0.158l0.133-0.158
		l0.133-0.145l0.133-0.133l0.145-0.133l0.145-0.121l0.145-0.109l0.145-0.121l0.157-0.097l0.327-0.206l0.339-0.17l0.339-0.17
		l0.363-0.158l0.376-0.145l0.376-0.121l0.4-0.121l0.388-0.109l0.412-0.097l0.4-0.073l0.4-0.012l0.412-0.036l0.4-0.024l0.412-0.012
		l0.4-0.061l0.4-0.024l0.376-0.012h0.351h2.701v-0.291l-0.012-0.291l-0.024-0.267l-0.036-0.267l-0.036-0.242l-0.036-0.242
		l-0.061-0.218l-0.048-0.218l-0.073-0.194l-0.073-0.194L85.9,77.76l-0.085-0.17l-0.097-0.145l-0.097-0.145l-0.109-0.133
		l-0.121-0.133l-0.133-0.109l-0.157-0.109l-0.145-0.109l-0.17-0.085l-0.17-0.097l-0.182-0.073l-0.194-0.073l-0.194-0.073
		l-0.206-0.061l-0.218-0.048l-0.23-0.048l-0.23-0.036l-0.242-0.024l-0.242-0.024l-0.254-0.012h-0.267l-0.4,0.024l-0.4,0.036
		L80.97,76.16l-0.388,0.073l-0.376,0.085l-0.363,0.097l-0.363,0.109l-0.363,0.133l-0.351,0.145l-0.339,0.145l-0.339,0.182
		l-0.339,0.182l-0.327,0.206l-0.315,0.218l-0.315,0.23l-0.303,0.242L76.306,73.797L76.306,73.797z M41.297,72.718h5.136
		l4.046,14.762h0.097l3.78-14.762h5.669l4.046,14.762l3.864-14.762h4.676l-5.754,19.985h-5.669l-4.046-15.222h-0.097l-3.949,15.222
		h-5.585L41.297,72.718L41.297,72.718z M33.653,90.449h-0.085l-0.279,0.327l-0.291,0.303l-0.291,0.291l-0.303,0.267l-0.327,0.242
		l-0.327,0.218l-0.339,0.194l-0.351,0.182l-0.351,0.158l-0.376,0.145l-0.376,0.109l-0.388,0.097l-0.412,0.073l-0.412,0.048
		l-0.424,0.036l-0.424,0.012h-0.267l-0.254-0.012l-0.254-0.012l-0.242-0.024l-0.242-0.036l-0.242-0.024l-0.23-0.048l-0.23-0.048
		l-0.218-0.048L25.5,92.836l-0.218-0.073l-0.218-0.073l-0.206-0.073l-0.194-0.085l-0.194-0.097l-0.194-0.097l-0.194-0.109
		l-0.182-0.109l-0.182-0.109l-0.17-0.133l-0.17-0.121l-0.157-0.133l-0.157-0.145l-0.157-0.158l-0.145-0.145l-0.145-0.17
		l-0.133-0.158l-0.133-0.182l-0.133-0.182l-0.121-0.182l-0.121-0.194l-0.109-0.206l-0.218-0.388l-0.194-0.4l-0.194-0.412
		l-0.17-0.412l-0.157-0.424l-0.145-0.436l-0.145-0.448l-0.109-0.448l-0.109-0.461l-0.097-0.473l-0.085-0.473l-0.061-0.485
		l-0.048-0.497l-0.036-0.497l-0.024-0.509l-0.012-0.521l0.012-0.521l0.024-0.509l0.036-0.497l0.048-0.497l0.061-0.485l0.085-0.473
		l0.097-0.473l0.109-0.448l0.109-0.448l0.145-0.436l0.145-0.436l0.157-0.412l0.17-0.412l0.194-0.388l0.194-0.388l0.218-0.376
		l0.109-0.194l0.121-0.182l0.121-0.182l0.133-0.17l0.133-0.17l0.133-0.158l0.145-0.158l0.145-0.145l0.157-0.145l0.157-0.133
		l0.157-0.133l0.17-0.121l0.17-0.109l0.182-0.121l0.182-0.097l0.194-0.109l0.194-0.085l0.194-0.097l0.194-0.085l0.206-0.073
		l0.218-0.073l0.218-0.061l0.218-0.061l0.218-0.061l0.46-0.085l0.485-0.073l0.497-0.048l0.521-0.024l0.424,0.012l0.424,0.024
		l0.412,0.061l0.4,0.073l0.4,0.097l0.376,0.109l0.363,0.145l0.363,0.158l0.17,0.097l0.17,0.085l0.17,0.109l0.157,0.109l0.17,0.109
		l0.157,0.109l0.157,0.133l0.145,0.121l0.303,0.279l0.279,0.291l0.279,0.327l0.254,0.339h0.097V63.628h4.761v29.075h-4.676V90.449
		L33.653,90.449z M25.197,82.62l-0.012,0.279l-0.012,0.291l0.012,0.267l0.012,0.279l0.024,0.279l0.024,0.267l0.036,0.267
		l0.048,0.267l0.048,0.267l0.073,0.267l0.073,0.255l0.073,0.267l0.097,0.267l0.097,0.267l0.097,0.267l0.121,0.267l0.133,0.23
		l0.145,0.218l0.157,0.194l0.157,0.194l0.327,0.364l0.339,0.339l0.097,0.073l0.109,0.085l0.109,0.061l0.109,0.061l0.109,0.061
		l0.109,0.048l0.121,0.048l0.121,0.048l0.254,0.061l0.267,0.048l0.279,0.024l0.291,0.012l0.303-0.012l0.291-0.024l0.279-0.048
		l0.267-0.061l0.133-0.048l0.121-0.048l0.121-0.048l0.121-0.061l0.109-0.061l0.121-0.061l0.097-0.085l0.109-0.073l0.194-0.182
		l0.194-0.17l0.182-0.194l0.157-0.194l0.157-0.194l0.145-0.194l0.121-0.206l0.109-0.206l0.133-0.267l0.121-0.267l0.109-0.267
		l0.097-0.267l0.085-0.255l0.073-0.255l0.061-0.255l0.036-0.23l0.061-0.279l0.036-0.267l0.036-0.267l0.048-0.279v-0.315v-0.303
		v-0.279V82.62v-0.267l-0.012-0.279l-0.012-0.267l-0.024-0.267l-0.036-0.267l-0.036-0.267l-0.048-0.267l-0.048-0.267L33.18,80.22
		l-0.073-0.255l-0.073-0.255l-0.097-0.255l-0.097-0.255l-0.109-0.242l-0.121-0.242l-0.121-0.242l-0.145-0.255l-0.145-0.242
		l-0.157-0.206l-0.157-0.206l-0.327-0.364l-0.327-0.351l-0.242-0.121l-0.242-0.109l-0.242-0.097l-0.242-0.073l-0.267-0.061
		l-0.267-0.036l-0.279-0.024l-0.291-0.012L28.88,76.33l-0.279,0.024l-0.254,0.036l-0.242,0.061l-0.23,0.073l-0.218,0.097
		l-0.218,0.109l-0.194,0.121l-0.194,0.145l-0.182,0.17l-0.157,0.17l-0.17,0.194l-0.145,0.218l-0.133,0.218L26.13,78.22l-0.121,0.255
		l-0.133,0.242l-0.109,0.23L25.67,79.19l-0.085,0.242l-0.061,0.242l-0.061,0.255l-0.048,0.267l-0.036,0.267l-0.061,0.291
		l-0.048,0.291l-0.036,0.291l-0.012,0.267l-0.012,0.267l-0.012,0.255v0.255V82.62L25.197,82.62z M4.591,86.934v0.158l0.012,0.145
		l0.024,0.133l0.024,0.145l0.036,0.121l0.048,0.133l0.048,0.121l0.061,0.121l0.073,0.109l0.073,0.109l0.085,0.097l0.085,0.097
		l0.097,0.085l0.097,0.085l0.109,0.073l0.121,0.073l0.085,0.085l0.085,0.073l0.109,0.073l0.109,0.061l0.109,0.048l0.121,0.061
		l0.121,0.036l0.133,0.048l0.133,0.036l0.145,0.024l0.157,0.024l0.157,0.024l0.327,0.024l0.363,0.012l0.267-0.024l0.254-0.036
		l0.254-0.036l0.254-0.061l0.23-0.061l0.23-0.085l0.23-0.085l0.206-0.109l0.218-0.109l0.194-0.133l0.182-0.145l0.182-0.158
		l0.17-0.17l0.17-0.182l0.145-0.194l0.145-0.218l0.121-0.218l0.133-0.23l0.109-0.23l0.109-0.242l0.097-0.242l0.085-0.255
		l0.085-0.255l0.061-0.255l0.073-0.267l0.048-0.267l0.048-0.279l0.036-0.267l0.036-0.279l0.012-0.279l0.012-0.291l0.012-0.279H9.182
		l-0.121,0.012l-0.109,0.024l-0.109,0.036l-0.109,0.012H8.649H8.54H8.407H8.274l-0.23,0.036l-0.218,0.048l-0.218,0.061L7.39,83.722
		l-0.206,0.073l-0.206,0.073l-0.206,0.097l-0.206,0.097l-0.23,0.073L6.13,84.219l-0.194,0.109L5.754,84.45l-0.157,0.133
		l-0.145,0.145L5.33,84.886l-0.109,0.158l-0.133,0.182l-0.121,0.194l-0.109,0.206l-0.085,0.23l-0.085,0.242L4.64,86.365
		l-0.024,0.133l-0.012,0.145l-0.012,0.145V86.934L4.591,86.934z M2.071,73.797l0.376-0.182l0.376-0.17L3.198,73.3l0.388-0.145
		l0.388-0.133l0.4-0.121l0.388-0.109l0.4-0.097l0.4-0.085l0.412-0.085l0.4-0.061l0.412-0.061l0.424-0.048l0.412-0.036l0.412-0.036
		l0.424-0.012h0.509l0.485,0.012l0.472,0.036l0.46,0.048l0.436,0.073l0.424,0.085l0.412,0.097l0.388,0.121l0.376,0.133l0.351,0.145
		l0.339,0.17l0.327,0.194l0.303,0.194l0.291,0.218l0.279,0.242l0.254,0.255l0.242,0.267l0.23,0.291l0.218,0.303l0.194,0.315
		l0.17,0.339l0.17,0.351l0.145,0.376l0.133,0.388l0.121,0.4l0.097,0.424l0.085,0.436l0.073,0.461l0.048,0.473l0.036,0.485
		l0.024,0.509l0.012,0.521v2.618v0.364v0.364v0.351v0.339v0.327v0.327v0.315v0.315v0.303v0.303v0.291v0.291v0.279v0.279v0.255v0.242
		l0.024,0.545l0.024,0.558l0.024,0.558l0.024,0.558l0.024,0.57l0.036,0.57l0.048,0.57l0.061,0.582h-4.325l-0.024-0.436l-0.036-0.412
		l-0.036-0.4l-0.024-0.376l-0.024-0.364l-0.012-0.339l-0.012-0.339v-0.303h-0.097l-0.242,0.388l-0.254,0.364l-0.121,0.182
		l-0.145,0.17l-0.133,0.158l-0.145,0.17l-0.157,0.145l-0.145,0.145l-0.17,0.145l-0.17,0.145l-0.17,0.133L10.2,92l-0.194,0.133
		l-0.194,0.121l-0.194,0.109l-0.194,0.109L9.231,92.57l-0.194,0.085L8.831,92.74l-0.206,0.073l-0.206,0.061l-0.206,0.061
		l-0.218,0.048L7.789,93.03l-0.218,0.036l-0.218,0.036l-0.218,0.024l-0.218,0.012l-0.218,0.012H6.481l-0.315-0.012l-0.315-0.012
		l-0.303-0.036l-0.303-0.036l-0.291-0.061l-0.291-0.073l-0.279-0.073l-0.279-0.097l-0.279-0.097l-0.267-0.121l-0.254-0.121
		l-0.254-0.133l-0.254-0.145l-0.242-0.17l-0.254-0.17l-0.23-0.17l-0.242-0.194l-0.23-0.206l-0.218-0.218l-0.194-0.23l-0.182-0.242
		l-0.157-0.242L0.69,90.025l-0.133-0.279l-0.109-0.279l-0.109-0.291l-0.097-0.303L0.17,88.558l-0.061-0.327l-0.048-0.327
		l-0.036-0.339L0,87.213v-0.267l0.012-0.267l0.024-0.267l0.024-0.242l0.036-0.255l0.048-0.242l0.048-0.242l0.061-0.23l0.073-0.218
		L0.4,84.765l0.085-0.218l0.085-0.194l0.097-0.206l0.097-0.182l0.109-0.182l0.121-0.17l0.097-0.182l0.109-0.182l0.109-0.158
		l0.121-0.158l0.121-0.158l0.121-0.145l0.133-0.133l0.133-0.133l0.133-0.121l0.145-0.109l0.145-0.121l0.145-0.097l0.157-0.109
		l0.157-0.097l0.157-0.085l0.17-0.085l0.376-0.17l0.363-0.158l0.388-0.145l0.376-0.121l0.4-0.121l0.4-0.109l0.412-0.097l0.436-0.073
		l0.4-0.012l0.412-0.036l0.4-0.024l0.412-0.012l0.17-0.036l0.182-0.024l0.182-0.012l0.194-0.012l0.4-0.012h0.4h2.701l-0.012-0.291
		l-0.012-0.291l-0.012-0.267l-0.036-0.267l-0.036-0.242l-0.048-0.242l-0.048-0.218l-0.073-0.218l-0.061-0.194l-0.085-0.194
		l-0.085-0.182l-0.097-0.17l-0.109-0.145l-0.109-0.145l-0.133-0.133l-0.121-0.133l-0.133-0.109l-0.133-0.109l-0.145-0.109
		l-0.145-0.085l-0.17-0.097l-0.17-0.073l-0.182-0.073L9.8,76.305l-0.206-0.061l-0.218-0.048l-0.218-0.048l-0.23-0.036l-0.242-0.024
		l-0.242-0.024l-0.254-0.012H7.923l-0.412,0.024l-0.388,0.036L6.735,76.16l-0.388,0.073l-0.376,0.085l-0.376,0.097l-0.363,0.109
		L4.87,76.657l-0.351,0.145l-0.351,0.145l-0.351,0.182l-0.339,0.182l-0.339,0.206L2.81,77.735l-0.327,0.23l-0.327,0.242
		L2.071,73.797L2.071,73.797z"/>
	<path style="fill-rule:evenodd;clip-rule:evenodd;fill:#7F7F7F;" d="M154.768,75.954v0.582l0.012,0.582l0.036,0.57l0.048,0.545
		l0.073,0.558l0.097,0.533l0.109,0.521l0.133,0.521l0.145,0.509l0.17,0.509l0.182,0.497l0.194,0.485l0.218,0.473l0.23,0.473
		l0.254,0.473l0.254,0.461l0.206,0.267l0.206,0.255l0.206,0.242l0.194,0.218l-0.182-0.133l-0.17-0.145l-0.182-0.158l-0.182-0.194
		l-0.097-0.109l-0.109-0.121l-0.097-0.133l-0.109-0.145l-0.194-0.291l-0.206-0.279l-0.279-0.448l-0.254-0.448l-0.242-0.461
		l-0.218-0.473l-0.206-0.485l-0.182-0.497l-0.157-0.497l-0.145-0.521l-0.133-0.509l-0.097-0.533l-0.097-0.533l-0.061-0.545
		l-0.048-0.545l-0.036-0.558l-0.012-0.57l0.012-0.57l0.012-0.582l0.024-0.582l0.048-0.558l0.061-0.558l0.085-0.545l0.097-0.533
		l0.121-0.521l0.133-0.521l0.157-0.509l0.157-0.497l0.194-0.485l0.194-0.473l0.218-0.473l0.23-0.461l0.254-0.448l0.267-0.448
		l0.145-0.218l0.145-0.218l0.157-0.206l0.157-0.206l0.17-0.194l0.17-0.194l0.182-0.182l0.182-0.17l0.194-0.17l0.194-0.158
		l0.194-0.145l0.206-0.145l0.206-0.145l0.218-0.121l0.218-0.133l0.23-0.109l0.23-0.121l0.23-0.097l0.242-0.097l0.242-0.097
		l0.254-0.073l0.254-0.085l0.267-0.061l0.267-0.073l0.267-0.048l0.279-0.061l0.291-0.036l0.291-0.036l0.291-0.036l0.291-0.024
		l0.315-0.012l0.303-0.012l0.497,0.024l0.497,0.036l0.472,0.061l0.46,0.085l0.448,0.085l0.436,0.121l0.412,0.121l0.412,0.145
		l0.4,0.17l0.376,0.182l0.363,0.206l0.351,0.218l0.339,0.242l0.327,0.255l0.303,0.267l0.303,0.303l-0.279-0.218l-0.291-0.194
		l-0.291-0.194l-0.315-0.17l-0.315-0.17l-0.327-0.145l-0.339-0.133l-0.351-0.121l-0.351-0.109l-0.376-0.085l-0.376-0.085l-0.4-0.061
		l-0.4-0.048l-0.412-0.036l-0.424-0.024l-0.424-0.012h-0.315l-0.303,0.012l-0.303,0.024l-0.291,0.024l-0.291,0.036l-0.279,0.036
		l-0.279,0.048l-0.279,0.061l-0.267,0.061l-0.254,0.061l-0.254,0.085l-0.254,0.085l-0.242,0.085l-0.242,0.097l-0.23,0.109
		l-0.23,0.109l-0.218,0.121l-0.218,0.133l-0.218,0.133l-0.206,0.133l-0.194,0.145l-0.206,0.158l-0.182,0.17l-0.182,0.158
		l-0.182,0.182l-0.17,0.182l-0.17,0.194l-0.157,0.194l-0.157,0.206l-0.145,0.206l-0.145,0.218l-0.145,0.23l-0.279,0.436
		l-0.254,0.461l-0.242,0.448l-0.23,0.473l-0.206,0.473l-0.194,0.497l-0.182,0.485l-0.157,0.509l-0.133,0.509l-0.121,0.521
		l-0.097,0.521l-0.085,0.533l-0.073,0.545l-0.048,0.558l-0.024,0.558L154.768,75.954L154.768,75.954z M175.738,62.719l0.218,0.255
		l0.23,0.242l0.23,0.242l0.218,0.255l0.267,0.291l0.254,0.291l0.254,0.303l0.23,0.315l0.23,0.303l0.23,0.327l0.206,0.327
		l0.206,0.327l0.194,0.339l0.182,0.339l0.182,0.351l0.17,0.351l0.157,0.364l0.157,0.364l0.145,0.376l0.133,0.376l0.121,0.388
		l0.121,0.388l0.109,0.4l0.109,0.4l0.085,0.412l0.085,0.412l0.085,0.424l0.061,0.424l0.061,0.436l0.048,0.436l0.048,0.448
		l0.036,0.461l0.024,0.448l0.024,0.473l0.012,0.473v0.473v0.485l-0.012,0.473l-0.024,0.461l-0.024,0.461l-0.036,0.461l-0.048,0.448
		l-0.061,0.436l-0.061,0.436l-0.073,0.436l-0.073,0.424l-0.097,0.424l-0.085,0.412l-0.109,0.412l-0.109,0.4l-0.121,0.4l-0.133,0.388
		l-0.133,0.388l-0.145,0.376l-0.157,0.376l-0.157,0.364l-0.17,0.364l-0.182,0.364l-0.182,0.351l-0.194,0.339l-0.206,0.339
		l-0.206,0.327l-0.218,0.327l-0.23,0.327l-0.23,0.315l-0.242,0.315l-0.254,0.303l-0.254,0.291l-0.267,0.291l-0.291,0.291
		l-0.279,0.267l-0.291,0.267l-0.303,0.255L174.89,90l-0.315,0.242l-0.315,0.23l-0.339,0.218l-0.327,0.206l-0.351,0.206l-0.351,0.194
		l-0.351,0.194l-0.376,0.17l-0.363,0.17l-0.388,0.158l-0.388,0.158l-0.388,0.133l-0.4,0.133l-0.412,0.121l-0.424,0.109l-0.424,0.109
		l-0.436,0.085l-0.436,0.085l-0.448,0.073l-0.448,0.073l-0.472,0.048l-0.472,0.048l-0.472,0.036l-0.485,0.024l-0.497,0.012h-0.497
		l-0.497-0.012l-0.472-0.012l-0.472-0.036l-0.46-0.036l-0.448-0.036l-0.448-0.061l-0.436-0.061l-0.436-0.061l-0.424-0.073
		l-0.412-0.085l-0.412-0.097l-0.4-0.097l-0.4-0.109l-0.388-0.109l-0.376-0.133l-0.376-0.121l-0.363-0.145l-0.363-0.145l-0.351-0.158
		l-0.339-0.158l-0.339-0.17l-0.327-0.182l-0.327-0.182l-0.315-0.194l-0.315-0.206l-0.303-0.206l-0.291-0.218l-0.291-0.23
		l-0.291-0.23l-0.279-0.242l-0.266-0.255l-0.267-0.255l0.254,0.218l0.266,0.206l0.267,0.206l0.267,0.194l0.291,0.194l0.279,0.182
		l0.291,0.182l0.303,0.17l0.303,0.158l0.303,0.158l0.315,0.158l0.327,0.145l0.327,0.133l0.327,0.133l0.339,0.121l0.351,0.121
		l0.339,0.109l0.363,0.097l0.363,0.097L158.669,92l0.376,0.085l0.388,0.073l0.388,0.073l0.388,0.061l0.4,0.048l0.412,0.048
		l0.412,0.036l0.424,0.036l0.424,0.024l0.424,0.024l0.436,0.012h0.448l0.497-0.012l0.485-0.012l0.485-0.024l0.472-0.024l0.46-0.048
		l0.46-0.048l0.46-0.061l0.448-0.073l0.436-0.085l0.424-0.085l0.436-0.097l0.412-0.121l0.412-0.109l0.4-0.133l0.4-0.133l0.388-0.145
		l0.388-0.158l0.376-0.17l0.363-0.17l0.363-0.194l0.351-0.194l0.351-0.206l0.339-0.206l0.327-0.23l0.327-0.23l0.315-0.242
		l0.315-0.255l0.303-0.255l0.291-0.279l0.291-0.279l0.279-0.291l0.279-0.291l0.254-0.303l0.254-0.303l0.242-0.303l0.23-0.327
		l0.23-0.315l0.218-0.327l0.206-0.327l0.194-0.339l0.194-0.351l0.194-0.351l0.17-0.351l0.17-0.364l0.17-0.364l0.145-0.376
		l0.145-0.376l0.145-0.388l0.121-0.388l0.121-0.388l0.121-0.4l0.097-0.412l0.097-0.4l0.085-0.424l0.085-0.424l0.073-0.424
		l0.061-0.436l0.048-0.436l0.048-0.436l0.036-0.448l0.036-0.461l0.024-0.461l0.012-0.461v-0.473v-0.473l-0.012-0.473l-0.024-0.473
		l-0.036-0.461l-0.036-0.448l-0.048-0.448l-0.048-0.448l-0.061-0.436l-0.073-0.424l-0.085-0.436l-0.085-0.412l-0.097-0.412
		l-0.097-0.412l-0.121-0.4l-0.121-0.4l-0.121-0.388l-0.145-0.376l-0.145-0.376l-0.145-0.376l-0.17-0.364l-0.17-0.364l-0.17-0.351
		l-0.194-0.339l-0.194-0.339l-0.194-0.339l-0.206-0.327l-0.218-0.315l-0.23-0.327l-0.23-0.303l-0.242-0.303l-0.254-0.291
		l-0.254-0.291L175.738,62.719L175.738,62.719z M145.053,60.477h0.715v5.211h-13.58V72.9h-0.812v-7.926h13.677V60.477
		L145.053,60.477z M143.878,73.881h0.727v5.224h-12.417v8.375h-0.812v-9.09h12.502V73.881L143.878,73.881z M145.138,88.376h0.727
		V93.6h-20.703v-0.715h19.976V88.376L145.138,88.376z"/>
	<path style="fill-rule:evenodd;clip-rule:evenodd;fill:#00A3E0;" d="M153.872,75.057l-0.012,0.57l0.012,0.57l0.036,0.558
		l0.048,0.545l0.073,0.545l0.085,0.533l0.109,0.521l0.121,0.521l0.145,0.509l0.157,0.509l0.182,0.485l0.206,0.485l0.218,0.473
		l0.242,0.473l0.254,0.448l0.279,0.448l0.145,0.23l0.157,0.23l0.157,0.218l0.157,0.206l0.17,0.206l0.17,0.194l0.182,0.182
		l0.182,0.182l0.182,0.182l0.194,0.158l0.206,0.158l0.206,0.158l0.206,0.145l0.218,0.133l0.218,0.133l0.218,0.121l0.23,0.109
		l0.242,0.109l0.242,0.097l0.242,0.097l0.254,0.085l0.254,0.073l0.267,0.073l0.267,0.061l0.267,0.061l0.279,0.048l0.279,0.036
		l0.291,0.036l0.291,0.024l0.303,0.024l0.303,0.012h0.315h0.327l0.327-0.012l0.327-0.024l0.315-0.024l0.303-0.024l0.303-0.036
		l0.291-0.048l0.291-0.061l0.279-0.061l0.267-0.073l0.267-0.085l0.254-0.085l0.254-0.097l0.242-0.109l0.23-0.121l0.218-0.133
		l0.23-0.133l0.23-0.145l0.218-0.158l0.206-0.145l0.194-0.17l0.194-0.158l0.194-0.17l0.182-0.182l0.17-0.182l0.17-0.182l0.157-0.182
		l0.157-0.194l0.303-0.388l0.279-0.4l0.267-0.461l0.242-0.461l0.23-0.473l0.206-0.485l0.194-0.485l0.182-0.497l0.157-0.497
		l0.145-0.509l0.121-0.509l0.109-0.521l0.097-0.533l0.073-0.533l0.061-0.545l0.036-0.558l0.036-0.558v-0.57v-0.57l-0.036-0.558
		l-0.036-0.558l-0.061-0.545l-0.073-0.533l-0.097-0.533l-0.109-0.509l-0.121-0.521l-0.145-0.497l-0.157-0.497l-0.182-0.485
		l-0.194-0.473l-0.206-0.473l-0.23-0.461l-0.242-0.448l-0.267-0.448l-0.145-0.218l-0.157-0.218l-0.157-0.206l-0.157-0.206
		l-0.17-0.194l-0.17-0.194l-0.182-0.182l-0.182-0.182l-0.182-0.17l-0.194-0.158l-0.206-0.158l-0.206-0.145l-0.206-0.145
		l-0.218-0.133l-0.218-0.133l-0.23-0.121l-0.23-0.109l-0.242-0.109l-0.242-0.109l-0.254-0.085l-0.254-0.097l-0.254-0.073
		l-0.267-0.073l-0.279-0.073l-0.279-0.061l-0.279-0.048l-0.291-0.048l-0.291-0.036l-0.303-0.036l-0.303-0.024l-0.315-0.024
		l-0.315-0.012l-0.303,0.012l-0.303,0.024l-0.291,0.024l-0.279,0.036l-0.291,0.036l-0.267,0.048l-0.279,0.048l-0.267,0.061
		l-0.267,0.073l-0.254,0.073l-0.254,0.073l-0.242,0.097l-0.242,0.085l-0.242,0.109l-0.23,0.109l-0.23,0.109l-0.23,0.121
		l-0.218,0.133l-0.206,0.133l-0.206,0.145l-0.206,0.145l-0.206,0.158l-0.182,0.158l-0.194,0.17l-0.182,0.182l-0.182,0.182
		l-0.17,0.194l-0.17,0.194l-0.157,0.206l-0.157,0.206l-0.145,0.218l-0.145,0.218l-0.279,0.448l-0.267,0.448l-0.23,0.461l-0.23,0.473
		l-0.194,0.473l-0.194,0.485l-0.157,0.497l-0.157,0.497l-0.121,0.521l-0.121,0.509l-0.085,0.533l-0.085,0.533l-0.061,0.545
		l-0.036,0.558l-0.024,0.558L153.872,75.057L153.872,75.057z M146.761,75.057v-0.485l0.012-0.473l0.024-0.461l0.036-0.461
		l0.036-0.461l0.048-0.448l0.048-0.436l0.061-0.436l0.073-0.436l0.085-0.424l0.085-0.412l0.097-0.424l0.097-0.4l0.121-0.4l0.121-0.4
		l0.121-0.388l0.145-0.388l0.145-0.376l0.145-0.364l0.17-0.364l0.157-0.364l0.182-0.351l0.182-0.351l0.206-0.339l0.194-0.327
		l0.206-0.327l0.218-0.327l0.23-0.315l0.23-0.303l0.242-0.303l0.254-0.303l0.254-0.291l0.279-0.279l0.279-0.279l0.291-0.267
		l0.291-0.255l0.303-0.242l0.303-0.242l0.315-0.23l0.327-0.23l0.327-0.206l0.339-0.206l0.339-0.206l0.351-0.182l0.363-0.182
		l0.363-0.17l0.376-0.17l0.376-0.145l0.388-0.145l0.4-0.145l0.4-0.121l0.412-0.121l0.412-0.109l0.424-0.109l0.436-0.085l0.436-0.085
		l0.448-0.073l0.46-0.073l0.46-0.061l0.472-0.048l0.472-0.036l0.497-0.024l0.485-0.024l0.509-0.012l0.497,0.012l0.497,0.012
		l0.485,0.036l0.485,0.036l0.472,0.048l0.46,0.048l0.448,0.073l0.448,0.073l0.448,0.073l0.424,0.097l0.436,0.097l0.412,0.109
		l0.412,0.121l0.4,0.121l0.4,0.133l0.388,0.145l0.376,0.145l0.376,0.17l0.363,0.17l0.363,0.182l0.339,0.182l0.351,0.194l0.339,0.206
		l0.327,0.218l0.315,0.23l0.315,0.23l0.315,0.242l0.303,0.255l0.291,0.267l0.291,0.267l0.279,0.279l0.279,0.291l0.254,0.291
		l0.267,0.303l0.242,0.303l0.242,0.303l0.23,0.315l0.23,0.327l0.206,0.327l0.218,0.327l0.194,0.339l0.194,0.351l0.17,0.351
		l0.182,0.364l0.157,0.364l0.157,0.364l0.145,0.376l0.145,0.388l0.133,0.388l0.121,0.4l0.109,0.4l0.109,0.4l0.097,0.424l0.085,0.412
		l0.085,0.424l0.073,0.436l0.061,0.436l0.061,0.436l0.036,0.448l0.036,0.461l0.036,0.461l0.024,0.461l0.012,0.473v0.485
		l-0.012,0.473l-0.024,0.473l-0.024,0.473l-0.036,0.461l-0.048,0.448l-0.048,0.448l-0.061,0.436l-0.061,0.436l-0.085,0.424
		l-0.073,0.424l-0.097,0.424l-0.097,0.4l-0.109,0.412l-0.109,0.4l-0.121,0.388l-0.133,0.388l-0.133,0.376l-0.145,0.376l-0.157,0.376
		l-0.157,0.364l-0.157,0.364l-0.182,0.351l-0.182,0.339l-0.194,0.339l-0.194,0.339l-0.206,0.327l-0.206,0.327l-0.218,0.327
		l-0.23,0.303l-0.242,0.315l-0.242,0.303l-0.242,0.291l-0.279,0.303l-0.279,0.291l-0.291,0.279l-0.291,0.279l-0.303,0.255
		l-0.315,0.255l-0.315,0.242l-0.327,0.23l-0.327,0.218l-0.339,0.218l-0.351,0.206l-0.351,0.194l-0.363,0.182l-0.376,0.182
		l-0.376,0.158l-0.388,0.158l-0.388,0.145l-0.4,0.145l-0.4,0.121l-0.424,0.121l-0.412,0.109l-0.436,0.097l-0.436,0.097l-0.436,0.085
		l-0.46,0.061l-0.448,0.073l-0.472,0.048l-0.472,0.036l-0.485,0.036l-0.485,0.024l-0.497,0.012l-0.497,0.012l-0.509-0.012
		l-0.497-0.012l-0.485-0.024l-0.472-0.036l-0.472-0.036l-0.472-0.048l-0.46-0.061l-0.448-0.073l-0.436-0.085l-0.436-0.085
		l-0.436-0.097l-0.412-0.109l-0.412-0.121l-0.412-0.133l-0.4-0.133l-0.388-0.145l-0.376-0.145l-0.376-0.17l-0.376-0.17l-0.351-0.182
		l-0.351-0.194l-0.351-0.206l-0.327-0.206l-0.327-0.218l-0.327-0.23l-0.315-0.23l-0.303-0.242l-0.291-0.255l-0.291-0.267
		l-0.279-0.279l-0.279-0.279l-0.267-0.291l-0.254-0.303l-0.254-0.303l-0.242-0.303l-0.23-0.315l-0.23-0.315l-0.218-0.327
		l-0.206-0.339l-0.194-0.327l-0.206-0.351l-0.182-0.339l-0.182-0.351l-0.157-0.364l-0.17-0.364l-0.145-0.376l-0.145-0.376
		l-0.145-0.388l-0.121-0.388l-0.121-0.388l-0.121-0.4l-0.097-0.412l-0.097-0.412l-0.085-0.424L147.1,79.19l-0.073-0.436
		l-0.061-0.436l-0.048-0.448l-0.048-0.448l-0.036-0.461l-0.036-0.461l-0.024-0.473l-0.012-0.485V75.057L146.761,75.057z
		 M124.181,59.483h20.606v5.224h-13.592V72.9h12.417v5.211h-12.417v9.368h13.677v5.224h-20.691V59.483L124.181,59.483z"/>
</g>
</svg>
